<?xml version="1.0"?>
<svg xmlns="http://www.w3.org/2000/svg" viewBox="0 0 512 512" width="512px" height="512px" class=""><g><g fill="#ececf1"><path d="m421 391h30v30h-30zm0 0" data-original="#000000" class="" style="fill:#FFFF00" data-old_color="#ECECF1"/><path d="m421 451h30v30h-30zm0 0" data-original="#000000" class="" style="fill:#FFFF00" data-old_color="#ECECF1"/><path d="m391 421h30v30h-30zm0 0" data-original="#000000" class="" style="fill:#FFFF00" data-old_color="#ECECF1"/></g><path d="m451 421h30v30h-30zm0 0" fill="#e2e2e7" data-original="#E2E2E7" class="active-path" style="fill:#F4F4A4" data-old_color="#F4F4A3"/><path d="m0 211 256 301-29.085938-169.816406-75.914062-131.183594-55-30zm0 0" fill="#ff9ac9" data-original="#FF9AC9" class="" style="fill:#EA6C71" data-old_color="#F2555C"/><path d="m361 211-73.554688 124.441406-31.445312 176.558594 256-301-76-30zm0 0" fill="#ff7cb9" data-original="#FF7CB9" class="" style="fill:#F24F56" data-old_color="#F2555C"/><path d="m361 211-105 301-105-301 105-30zm0 0" fill="#ff7cb9" data-original="#FF7CB9" class="" style="fill:#F24F56" data-old_color="#F2555C"/><path d="m361 211-105 301v-331zm0 0" fill="#ff5ca8" data-original="#FF5CA8" class="" style="fill:#F3141F" data-old_color="#FF000C"/><path d="m512 211h-151v-90l60-30zm0 0" fill="#ff3997" data-original="#FF3997" class="" style="fill:#FF000C" data-old_color="#FF3997"/><path d="m151 211h-151l91-120 60 30zm0 0" fill="#ff5ca8" data-original="#FF5CA8" class="" style="fill:#F3141F" data-old_color="#FF000C"/><path d="m256 91-15 90-90 30-60-120zm0 0" fill="#ff7cb9" data-original="#FF7CB9" class="" style="fill:#F24F56" data-old_color="#F2555C"/><path d="m421 91-60 120-90-30-15-90zm0 0" fill="#ff5ca8" data-original="#FF5CA8" class="" style="fill:#F3141F" data-old_color="#FF000C"/><path d="m361 211h-210l105-120zm0 0" fill="#ff9ac9" data-original="#FF9AC9" class="" style="fill:#EA6C71" data-old_color="#F2555C"/><path d="m361 211h-105v-120zm0 0" fill="#ff7cb9" data-original="#FF7CB9" class="" style="fill:#F24F56" data-old_color="#F2555C"/><path d="m436 391h15v30h-15zm0 0" fill="#e2e2e7" data-original="#E2E2E7" class="active-path" style="fill:#F4F4A4" data-old_color="#F4F4A3"/><path d="m436 451h15v30h-15zm0 0" fill="#e2e2e7" data-original="#E2E2E7" class="active-path" style="fill:#F4F4A4" data-old_color="#F4F4A3"/><path d="m31 0h30v31h-30zm0 0" fill="#ececf1" data-original="#ECECF1" class="" style="fill:#FFFF00" data-old_color="#ECECF1"/><path d="m31 61h30v30h-30zm0 0" fill="#ececf1" data-original="#ECECF1" class="" style="fill:#FFFF00" data-old_color="#ECECF1"/><path d="m0 31h31v30h-31zm0 0" fill="#ececf1" data-original="#ECECF1" class="" style="fill:#FFFF00" data-old_color="#ECECF1"/><path d="m61 31h30v30h-30zm0 0" fill="#e2e2e7" data-original="#E2E2E7" class="active-path" style="fill:#F4F4A4" data-old_color="#F4F4A3"/><path d="m46 0h15v31h-15zm0 0" fill="#e2e2e7" data-original="#E2E2E7" class="active-path" style="fill:#F4F4A4" data-old_color="#F4F4A3"/><path d="m46 61h15v30h-15zm0 0" fill="#e2e2e7" data-original="#E2E2E7" class="active-path" style="fill:#F4F4A4" data-old_color="#F4F4A3"/></g> </svg>
