<?xml version="1.0" standalone="no"?>
<!DOCTYPE svg PUBLIC "-//W3C//DTD SVG 20010904//EN"
 "http://www.w3.org/TR/2001/REC-SVG-20010904/DTD/svg10.dtd">
<svg version="1.0" xmlns="http://www.w3.org/2000/svg"
 width="567.000000pt" height="567.000000pt" viewBox="0 0 567.000000 567.000000"
 preserveAspectRatio="xMidYMid meet">
<metadata>
Created by potrace 1.15, written by Peter Selinger 2001-2017
</metadata>
<g transform="translate(0.000000,567.000000) scale(0.100000,-0.100000)"
fill="#000000" stroke="none">
<path d="M1238 4402 c-36 -4 -68 -9 -70 -12 -3 -3 33 -142 79 -310 97 -357
148 -577 164 -713 17 -135 4 -211 -61 -359 -27 -64 -50 -120 -50 -126 0 -20
-17 -21 -111 -7 -109 17 -142 18 -135 6 3 -4 34 -11 68 -14 35 -3 153 -29 262
-57 189 -48 289 -80 776 -248 217 -75 230 -73 60 12 -144 73 -258 116 -437
167 -84 23 -153 46 -153 50 0 4 22 27 49 50 28 24 48 47 45 51 -3 4 -45 8 -94
8 l-88 0 -7 30 c-13 60 34 221 102 352 52 100 247 278 441 403 34 22 62 43 62
47 0 3 -37 41 -82 83 -135 125 -307 231 -456 280 -29 9 -55 15 -58 12 -2 -2
14 -35 37 -73 55 -89 111 -212 138 -298 24 -77 28 -111 17 -145 -6 -16 -5 -21
3 -17 7 4 11 -1 11 -13 0 -21 -137 -181 -155 -181 -5 0 -24 9 -41 19 -28 17
-33 27 -43 88 -17 96 -90 395 -150 610 -28 100 -51 185 -51 187 0 3 51 -12
113 -34 313 -108 573 -253 747 -417 l77 -73 29 41 c76 111 235 213 385 249
269 64 574 -36 726 -239 l36 -49 30 35 c87 99 295 240 502 339 125 60 393 159
403 150 2 -3 -8 -49 -22 -103 -98 -362 -130 -485 -156 -613 -31 -152 -41 -171
-99 -186 -19 -5 -29 0 -50 27 -14 19 -45 55 -69 81 l-44 47 6 70 c10 112 83
300 172 439 19 29 34 54 34 56 0 8 -77 -17 -160 -53 -121 -52 -246 -137 -350
-237 l-90 -87 88 -59 c212 -145 355 -279 411 -387 62 -119 103 -250 99 -319
l-3 -57 -75 -3 c-127 -4 -127 -4 -63 -65 l55 -53 -139 -38 c-76 -21 -181 -54
-233 -74 -101 -36 -326 -144 -349 -167 -7 -7 78 18 190 57 493 171 594 203
778 250 108 27 224 52 259 55 34 3 65 10 68 14 7 12 -27 11 -136 -5 -52 -8
-97 -13 -99 -11 -18 18 -114 274 -123 327 -23 134 8 304 159 866 69 259 84
325 73 332 -22 13 -253 23 -379 16 -296 -18 -538 -76 -726 -174 l-72 -38 -114
15 c-73 9 -205 14 -364 14 -159 0 -291 -5 -364 -14 l-114 -15 -72 38 c-138 72
-303 122 -505 153 -116 17 -437 27 -542 17z"/>
<path d="M3203 3888 c-5 -7 -54 -159 -108 -338 -54 -179 -106 -351 -116 -382
-35 -118 8 -57 107 147 54 113 103 205 109 205 5 0 57 -43 115 -94 58 -52 108
-91 113 -87 7 7 -186 538 -202 554 -4 4 -12 2 -18 -5z"/>
<path d="M2442 3873 c-5 -10 -49 -124 -97 -253 -48 -129 -91 -245 -96 -257 -5
-13 -5 -23 0 -23 5 0 54 41 109 90 56 50 107 90 115 90 9 0 53 -79 116 -206
56 -114 104 -204 107 -201 8 7 -227 777 -237 777 -5 0 -12 -8 -17 -17z"/>
<path d="M2660 3862 c0 -21 133 -478 142 -489 6 -7 21 -13 33 -13 12 0 27 6
33 13 13 16 145 487 138 494 -10 10 -27 -11 -97 -123 -39 -63 -74 -112 -78
-109 -3 4 -38 56 -76 117 -63 100 -95 137 -95 110z"/>
<path d="M2160 3240 c-69 -15 -164 -66 -220 -118 l-50 -47 19 -52 c25 -69 84
-156 129 -192 114 -89 242 -110 417 -66 71 18 100 10 179 -50 l46 -35 0 43 c0
71 -28 178 -65 254 -89 181 -290 297 -455 263z m132 -72 c54 -16 120 -84 160
-165 l32 -66 -39 -34 c-47 -41 -128 -80 -184 -89 -58 -9 -120 17 -171 72 -52
56 -104 162 -89 180 20 24 112 78 163 96 61 21 77 22 128 6z"/>
<path d="M2186 3150 c-42 -13 -68 -40 -55 -56 6 -7 9 -25 7 -41 -2 -23 -8 -29
-35 -31 -37 -4 -41 -16 -22 -73 47 -139 235 -155 298 -25 26 54 26 88 0 142
-33 69 -120 107 -193 84z"/>
<path d="M3334 3232 c-144 -51 -261 -173 -314 -326 -20 -60 -47 -222 -38 -232
3 -3 20 8 38 25 18 16 54 41 81 56 49 26 50 27 112 11 248 -62 424 7 522 207
52 108 52 111 -30 173 -38 30 -95 64 -125 75 -77 30 -181 35 -246 11z m221
-92 c33 -16 74 -42 92 -57 l32 -28 -30 -64 c-41 -82 -111 -155 -167 -172 -58
-17 -133 1 -209 50 -90 59 -91 60 -54 136 37 74 104 147 153 163 48 16 115 6
183 -28z"/>
<path d="M3362 3139 c-32 -16 -41 -26 -36 -38 22 -53 10 -81 -32 -81 -31 0
-32 -37 -3 -96 64 -134 258 -112 298 33 27 97 -58 203 -164 203 -11 0 -39 -10
-63 -21z"/>
<path d="M1271 2796 c-21 -54 -33 -149 -30 -240 l4 -96 -150 0 c-83 0 -157 -5
-165 -10 -10 -7 19 -8 91 -4 139 9 239 -1 239 -24 1 -60 122 -291 209 -399
l50 -62 -97 -57 c-131 -77 -215 -134 -207 -142 3 -4 9 -2 13 4 27 42 446 253
777 393 291 123 289 122 250 114 -73 -14 -294 -102 -455 -180 l-175 -84 -32
38 c-18 21 -33 45 -33 54 0 27 47 182 75 244 14 32 23 60 20 63 -3 3 -24 9
-48 13 -46 9 43 6 343 -12 103 -6 202 -9 220 -7 45 4 -221 36 -367 45 -62 3
-113 8 -113 10 0 9 102 152 116 164 27 22 14 29 -54 29 -78 0 -151 -19 -236
-62 l-59 -30 24 39 c13 21 38 58 55 83 l33 46 -31 13 c-24 11 -245 80 -256 81
-1 0 -7 -11 -11 -24z"/>
<path d="M4265 2784 c-91 -28 -139 -45 -163 -60 -2 -2 16 -31 40 -66 25 -35
48 -68 52 -75 4 -7 -22 1 -56 17 -107 50 -197 68 -266 54 l-31 -6 53 -72 c30
-39 59 -81 65 -93 10 -21 9 -22 -42 -27 -28 -3 -88 -8 -132 -11 -127 -9 -329
-36 -345 -46 -10 -7 14 -8 70 -4 356 24 589 37 575 31 -5 -2 -27 -7 -47 -10
l-36 -7 30 -67 c17 -37 41 -107 53 -157 22 -88 23 -90 4 -116 -41 -58 -36 -58
-207 24 -225 108 -480 203 -521 194 -9 -1 2 -9 24 -16 186 -62 801 -350 984
-460 46 -28 86 -49 88 -47 6 6 -92 71 -210 140 l-97 57 39 47 c87 104 199 311
217 401 6 28 10 30 62 37 31 4 108 4 172 0 76 -4 110 -3 100 4 -8 5 -82 10
-165 10 l-150 0 -1 133 c-1 129 -17 217 -39 223 -6 1 -59 -13 -120 -32z"/>
<path d="M2723 2451 c-26 -21 -46 -78 -34 -99 5 -10 21 -28 35 -41 14 -13 31
-40 37 -60 6 -20 18 -44 27 -54 18 -20 19 -18 -81 -88 -116 -81 -222 -113
-362 -112 -102 2 -196 27 -260 69 l-40 27 35 -37 c40 -43 95 -73 190 -105 87
-29 165 -84 217 -153 44 -57 197 -178 260 -204 18 -8 57 -14 88 -14 31 0 70 6
88 14 63 26 216 147 260 204 54 71 130 124 228 157 86 29 150 67 194 115 l30
33 -44 -32 c-65 -46 -159 -72 -266 -74 -140 -1 -246 31 -362 112 -101 70 -99
68 -80 88 8 10 19 32 23 48 4 17 25 49 46 73 24 27 37 49 34 59 -3 8 -9 25
-12 38 -10 40 -41 52 -140 52 -69 0 -96 -3 -111 -16z"/>
<path d="M1602 1946 l-44 -22 54 -49 c101 -92 214 -153 332 -180 61 -14 76
-23 140 -81 162 -148 365 -268 541 -320 129 -38 291 -38 420 0 174 52 376 171
540 319 63 58 81 68 137 81 120 28 235 90 339 184 l51 46 -46 23 -46 23 -75
-63 c-69 -59 -195 -137 -195 -121 0 11 41 77 77 121 18 23 33 44 33 47 0 4
-19 -3 -42 -15 -54 -28 -143 -112 -175 -166 -35 -60 -238 -206 -398 -286 -224
-112 -402 -139 -590 -89 -214 57 -552 259 -630 376 -19 29 -57 74 -84 99 -50
47 -131 95 -131 78 0 -5 5 -13 10 -16 12 -7 88 -118 96 -140 5 -11 2 -14 -12
-8 -36 12 -149 90 -200 136 -29 26 -54 47 -55 47 -2 -1 -24 -11 -47 -24z"/>
</g>
</svg>
