<?xml version="1.0"?>
<svg xmlns="http://www.w3.org/2000/svg" xmlns:xlink="http://www.w3.org/1999/xlink" version="1.1" id="Capa_1" x="0px" y="0px" viewBox="0 0 512 512" style="enable-background:new 0 0 512 512;" xml:space="preserve" width="512px" height="512px" class=""><g><path style="fill:#6C5A85" d="M381.05,279.338l-84.592-128.453l-40.457,23.347l86.357,130.702  c21.385,32.327,23.198,72.009,4.848,106.15s-52.445,54.524-91.205,54.524s-72.856-20.383-91.206-54.525  c-18.349-34.141-16.536-73.822,4.849-106.149l79.254-119.029l-81.716,39.777l-36.231,53.655  c-30.968,46.811-33.591,104.272-7.02,153.71S199.875,512,256.001,512c56.125,0,105.497-29.514,132.068-78.952  C414.642,383.61,412.017,326.148,381.05,279.338z" data-original="#984D00" class="active-path" data-old_color="#6A5885"/><g>
	<path style="fill:#5F4C7C" d="M381.05,279.338l-84.592-128.453l-40.457,23.347l86.357,130.702   c21.385,32.327,23.198,72.009,4.848,106.15s-52.445,54.524-91.205,54.524c0,12.401,0,36.541,0,46.391   c56.125,0,105.497-29.514,132.068-78.952C414.642,383.61,412.017,326.148,381.05,279.338z" data-original="#723802" class="" data-old_color="#723802"/>
	<polygon style="fill:#5F4C7C" points="174.226,46.957 134.05,70.153 177.714,145.782 218.18,123.086  " data-original="#723802" class="" data-old_color="#723802"/>
	<rect x="209.611" style="fill:#5F4C7C" width="46.39" height="125.24" data-original="#723802" class="" data-old_color="#723802"/>
</g><polygon style="fill:#6C5A85" points="317.853,100.26 294.657,60.083 138.52,150.229 161.716,190.406 134.05,206.379   157.246,246.555 313.383,156.409 290.187,116.233 " data-original="#984D00" class="active-path" data-old_color="#6A5885"/><g>
	
		<rect x="133.567" y="158.196" transform="matrix(-0.866 0.5 -0.5 -0.866 508.1449 226.6207)" style="fill:#5F4C7C" width="180.286" height="46.389" data-original="#723802" class="" data-old_color="#723802"/>
	<polygon style="fill:#5F4C7C" points="290.187,116.233 317.853,100.26 294.657,60.083 256.001,82.401 256.001,189.539    313.383,156.409  " data-original="#723802" class="" data-old_color="#723802"/>
</g><polygon style="fill:#473862" points="313.383,156.409 256.001,189.539 256.001,135.97 290.187,116.233 " data-original="#4D2602" class="" data-old_color="#4B3B67"/></g> </svg>
